<svg width="33" height="36" viewBox="0 0 33 36" fill="none" xmlns="http://www.w3.org/2000/svg">
<rect x="0.5" y="0.5" width="32" height="35" rx="1.5" stroke="#830000"/>
<path d="M4 5H29" stroke="#830000"/>
<path d="M12.0518 28H10.1729V13.4385C9.74121 13.9463 9.16146 14.4668 8.43359 15C7.70573 15.5247 7.03711 15.9225 6.42773 16.1934V13.9844C7.46029 13.3919 8.37012 12.6683 9.15723 11.8135C9.9528 10.9587 10.5114 10.125 10.833 9.3125H12.0518V28ZM26.5752 13.9463L24.709 14.124C24.5312 13.1676 24.2689 12.4863 23.9219 12.0801C23.4225 11.4876 22.8216 11.1914 22.1191 11.1914C21.0273 11.1914 20.1514 11.8685 19.4912 13.2227C18.9242 14.3906 18.6364 16.1172 18.6279 18.4023C19.0596 17.5898 19.6012 16.9762 20.2529 16.5615C20.9046 16.1383 21.5944 15.9268 22.3223 15.9268C23.5326 15.9268 24.5863 16.4769 25.4834 17.5771C26.389 18.6689 26.8418 20.1331 26.8418 21.9697C26.8418 23.2139 26.6133 24.3438 26.1562 25.3594C25.7077 26.3665 25.1279 27.1113 24.417 27.5938C23.7061 28.0762 22.9232 28.3174 22.0684 28.3174C20.528 28.3174 19.2585 27.6234 18.2598 26.2354C17.2611 24.8473 16.7617 22.5326 16.7617 19.291C16.7617 15.694 17.2738 13.1338 18.2979 11.6104C19.3219 10.0785 20.6338 9.3125 22.2334 9.3125C23.3929 9.3125 24.362 9.71029 25.1406 10.5059C25.9277 11.293 26.4059 12.4398 26.5752 13.9463ZM18.9199 21.9697C18.9199 23.3154 19.2373 24.3988 19.8721 25.2197C20.5068 26.0322 21.2432 26.4385 22.0811 26.4385C22.8174 26.4385 23.4733 26.0534 24.0488 25.2832C24.6328 24.513 24.9248 23.4551 24.9248 22.1094C24.9248 20.7891 24.637 19.765 24.0615 19.0371C23.486 18.3092 22.7835 17.9453 21.9541 17.9453C21.1416 17.9453 20.4307 18.3092 19.8213 19.0371C19.2204 19.7565 18.9199 20.734 18.9199 21.9697Z" fill="#830000"/>
</svg>
