<?xml version="1.0" encoding="utf-8"?>
<!-- Generator: Adobe Illustrator 26.0.3, SVG Export Plug-In . SVG Version: 6.00 Build 0)  -->
<svg version="1.1" id="Слой_1" xmlns="http://www.w3.org/2000/svg" xmlns:xlink="http://www.w3.org/1999/xlink" x="0px" y="0px"
	 viewBox="0 0 147 41" style="enable-background:new 0 0 147 41;" xml:space="preserve">
<style type="text/css">
	.st0{fill:#B9DED3;}
	.st1{fill:#8C8C8C;}
</style>
<path class="st0" d="M7.9,37c-1.3,0-2.3-0.3-3-1s-1-1.7-1-3V5.8c0-1.3,0.3-2.3,1-3s1.7-1,3-1h9.7c6,0,10.7,1.5,13.9,4.6
	c3.3,3,5,7.4,5,13c0,2.8-0.4,5.4-1.3,7.5c-0.8,2.2-2,4-3.7,5.5C30,33.9,28,35,25.7,35.8c-2.3,0.8-5,1.2-8,1.2H7.9z M11.6,30.6h5.6
	c1.9,0,3.6-0.2,5-0.7c1.4-0.5,2.6-1.2,3.5-2.1c0.9-0.9,1.6-2.1,2.1-3.5c0.5-1.4,0.7-3.1,0.7-5c0-3.8-0.9-6.6-2.9-8.4
	c-1.9-1.9-4.7-2.8-8.4-2.8h-5.6V30.6z M58.9,37.5c-3.5,0-6.5-0.8-9.2-2.2c-2.6-1.5-4.6-3.7-6.1-6.4c-1.4-2.7-2.2-5.9-2.2-9.5
	c0-2.8,0.4-5.2,1.2-7.4c0.8-2.2,2-4.1,3.5-5.7c1.5-1.6,3.4-2.8,5.5-3.7c2.2-0.9,4.5-1.3,7.2-1.3c3.5,0,6.6,0.8,9.2,2.2
	c2.6,1.5,4.6,3.6,6.1,6.4c1.5,2.7,2.2,5.9,2.2,9.5c0,2.8-0.4,5.3-1.2,7.5c-0.8,2.2-2,4.2-3.5,5.8c-1.5,1.6-3.4,2.8-5.5,3.7
	C63.9,37.1,61.5,37.5,58.9,37.5z M58.9,30.9c2,0,3.6-0.5,5-1.4c1.4-0.9,2.5-2.3,3.2-4c0.8-1.8,1.2-3.9,1.2-6.2
	c0-3.7-0.8-6.5-2.4-8.5c-1.6-2-3.9-3.1-6.9-3.1c-1.9,0-3.6,0.4-5,1.3c-1.4,0.9-2.5,2.2-3.2,4c-0.7,1.7-1.1,3.8-1.1,6.2
	c0,3.6,0.8,6.5,2.4,8.5C53.7,29.9,56,30.9,58.9,30.9z M85.9,37.5c-1.2,0-2.1-0.3-2.7-1c-0.6-0.7-0.9-1.6-0.9-2.8V5.2
	c0-1.3,0.3-2.2,0.9-2.9c0.6-0.7,1.5-1,2.5-1c0.9,0,1.6,0.2,2,0.6c0.5,0.3,1.1,0.9,1.7,1.7L107,25.9h-1.3V5c0-1.2,0.3-2.1,0.9-2.7
	c0.6-0.7,1.5-1,2.7-1s2.1,0.3,2.7,1c0.6,0.6,1,1.5,1,2.7v28.8c0,1.1-0.3,2-0.9,2.7c-0.6,0.6-1.3,1-2.3,1c-0.9,0-1.7-0.2-2.2-0.5
	c-0.5-0.4-1.1-1-1.8-1.8L88.2,12.8h1.3v20.9c0,1.2-0.3,2.1-0.9,2.8C88,37.1,87.1,37.5,85.9,37.5z M124,37c-1.3,0-2.3-0.3-3-1
	c-0.7-0.7-1-1.7-1-3V5.8c0-1.3,0.3-2.3,1-3c0.7-0.7,1.7-1,3-1h17.5c1,0,1.8,0.3,2.2,0.8c0.5,0.5,0.8,1.2,0.8,2.2
	c0,1-0.3,1.8-0.8,2.3c-0.5,0.5-1.2,0.8-2.2,0.8h-14.1V16h12.9c1,0,1.8,0.3,2.3,0.8c0.5,0.5,0.8,1.2,0.8,2.2s-0.3,1.8-0.8,2.3
	c-0.5,0.5-1.3,0.8-2.3,0.8h-12.9v8.8h14.1c1,0,1.8,0.3,2.2,0.8c0.5,0.5,0.8,1.2,0.8,2.2c0,1-0.3,1.8-0.8,2.3
	c-0.5,0.5-1.2,0.8-2.2,0.8H124z"/>
<path class="st1" d="M32.3,5.6L32.3,5.6C32.3,5.6,32.3,5.6,32.3,5.6C32.3,5.6,32.3,5.6,32.3,5.6L32.3,5.6c-3.5-3.3-8.4-4.9-14.6-4.9
	H7.9c-1.5,0-2.8,0.4-3.7,1.3S2.8,4.3,2.8,5.8V33c0,1.5,0.4,2.8,1.3,3.7S6.4,38,7.9,38h9.8c3.1,0,5.9-0.4,8.4-1.2l-0.3-1l0.3,0.9
	c2.5-0.8,4.5-2.1,6.3-3.7c1.7-1.6,3-3.6,3.9-5.9l0,0c0,0,0,0,0,0c0,0,0,0,0,0l0,0c0.9-2.3,1.4-5,1.4-7.9
	C37.5,13.5,35.8,8.9,32.3,5.6z M34.3,26.5c-0.8,2-1.9,3.7-3.4,5.1c-1.5,1.4-3.3,2.5-5.5,3.2c-2.2,0.7-4.8,1.1-7.7,1.1H7.9
	c-1.1,0-1.8-0.3-2.3-0.8c-0.5-0.5-0.8-1.2-0.8-2.3V5.8c0-1.1,0.3-1.8,0.8-2.3C6,3,6.8,2.8,7.9,2.8h9.8c5.9,0,10.2,1.5,13.3,4.3
	l0.7-0.7l-0.7,0.7c3,2.8,4.6,6.8,4.6,12.3C35.5,22.1,35.1,24.5,34.3,26.5l0.9,0.4L34.3,26.5z"/>
<path class="st1" d="M26.3,10.2C26.3,10.2,26.3,10.2,26.3,10.2C26.3,10.2,26.3,10.2,26.3,10.2L26.3,10.2c-2.1-2.1-5.2-3.1-9.1-3.1
	h-6.6v24.6h6.6c2,0,3.7-0.2,5.3-0.8c1.5-0.5,2.8-1.3,3.9-2.3c1.1-1.1,1.8-2.4,2.3-3.9l-1-0.3l1,0.3c0.5-1.6,0.7-3.3,0.7-5.3
	C29.4,15.4,28.4,12.3,26.3,10.2L26.3,10.2z M27.4,19.3c0,1.8-0.2,3.4-0.6,4.7c-0.4,1.3-1,2.3-1.9,3.1c-0.8,0.8-1.8,1.4-3.1,1.9
	c-1.3,0.4-2.8,0.6-4.6,0.6h-4.6V9.1h4.6c3.6,0,6.1,0.9,7.7,2.5l0.7-0.7l-0.7,0.7C26.5,13.2,27.4,15.7,27.4,19.3z"/>
<path class="st1" d="M75,9.3C75,9.3,75,9.3,75,9.3C75,9.3,75,9.3,75,9.3L75,9.3c-1.5-2.9-3.7-5.2-6.4-6.8c-2.8-1.6-6-2.4-9.7-2.4
	c-2.7,0-5.2,0.5-7.5,1.4l0.4,0.9l-0.4-0.9c-2.3,0.9-4.2,2.2-5.8,3.9l0,0c0,0,0,0,0,0c0,0,0,0,0,0l0,0c-1.6,1.7-2.9,3.7-3.8,6
	l0.9,0.3l-0.9-0.3c-0.8,2.3-1.3,4.9-1.3,7.8c0,3.8,0.7,7.1,2.3,10l0.9-0.5l-0.9,0.5c1.6,2.9,3.7,5.2,6.5,6.8l0.5-0.9l-0.5,0.9
	c2.8,1.6,6,2.4,9.6,2.4c2.7,0,5.3-0.5,7.5-1.4c2.3-0.9,4.2-2.2,5.8-3.9c1.6-1.7,2.9-3.7,3.8-6.1c0.9-2.4,1.3-5,1.3-7.8
	C77.4,15.5,76.6,12.2,75,9.3L75,9.3z M75.4,19.3c0,2.7-0.4,5-1.2,7.2c-0.8,2.1-1.9,3.9-3.3,5.4c-1.4,1.5-3.1,2.6-5.2,3.5
	c-2,0.8-4.3,1.2-6.8,1.2c-3.3,0-6.2-0.7-8.6-2.1c-2.4-1.4-4.3-3.4-5.7-6c-1.3-2.6-2-5.6-2-9.1c0-2.7,0.4-5,1.1-7.1
	c0.8-2.1,1.9-3.9,3.3-5.3l-0.7-0.7L47,6.9c1.4-1.5,3.1-2.6,5.2-3.5c2-0.8,4.3-1.2,6.8-1.2c3.4,0,6.3,0.7,8.7,2.1
	c2.4,1.4,4.3,3.4,5.7,5.9l0.9-0.5l-0.9,0.5C74.6,12.8,75.4,15.8,75.4,19.3z"/>
<path class="st1" d="M66.6,10.2L66.6,10.2C66.6,10.2,66.6,10.2,66.6,10.2C66.6,10.2,66.6,10.2,66.6,10.2L66.6,10.2
	c-1.9-2.3-4.5-3.4-7.7-3.4c-2.1,0-4,0.5-5.5,1.5c-1.6,1-2.8,2.5-3.6,4.4c-0.8,1.9-1.2,4.1-1.2,6.6c0,3.8,0.8,6.9,2.7,9.2l0.8-0.6
	l-0.8,0.6c1.8,2.3,4.4,3.4,7.6,3.4c2.1,0,4-0.5,5.5-1.5l-0.5-0.8l0.6,0.8c1.6-1.1,2.8-2.5,3.6-4.4l0,0c0,0,0,0,0,0c0,0,0,0,0,0l0,0
	c0.8-1.9,1.2-4.1,1.2-6.6C69.3,15.6,68.4,12.5,66.6,10.2z M66.2,25.2c-0.7,1.6-1.6,2.7-2.8,3.6c-1.2,0.8-2.6,1.2-4.4,1.2
	c-2.7,0-4.6-0.9-6.1-2.7c-1.4-1.8-2.2-4.4-2.2-7.9c0-2.3,0.4-4.3,1-5.9c0.7-1.6,1.6-2.7,2.8-3.5c1.2-0.8,2.7-1.2,4.5-1.2
	c2.7,0,4.7,0.9,6.1,2.7l0.8-0.6L65,11.5c1.4,1.8,2.2,4.3,2.2,7.9C67.3,21.6,66.9,23.6,66.2,25.2l0.9,0.4L66.2,25.2z"/>
<path class="st1" d="M144.5,31.1C144.5,31.1,144.5,31.1,144.5,31.1C144.4,31,144.4,31,144.5,31.1L144.5,31.1c-0.8-0.8-1.8-1.1-3-1.1
	h-13.1v-6.8h12c1.2,0,2.2-0.3,3-1c0.8-0.8,1.1-1.8,1.1-3c0-1.1-0.3-2.2-1.1-2.9l0,0c0,0,0,0,0,0c0,0,0,0,0,0l0,0
	c-0.8-0.8-1.8-1.1-3-1.1h-12V8.8h13.1c1.2,0,2.2-0.3,3-1c0.8-0.8,1.1-1.8,1.1-3c0-1.1-0.3-2.1-1.1-2.9l0,0c0,0,0,0,0,0c0,0,0,0,0,0
	l0,0c-0.7-0.8-1.8-1.1-2.9-1.1H124c-1.5,0-2.8,0.4-3.7,1.3C119.4,3,119,4.3,119,5.8V33c0,1.5,0.4,2.8,1.3,3.7
	c0.9,0.9,2.2,1.3,3.7,1.3h17.5c1.2,0,2.2-0.3,3-1c0.8-0.8,1.1-1.8,1.1-3C145.5,32.8,145.2,31.8,144.5,31.1L144.5,31.1z M143.5,34
	c0,0.8-0.2,1.3-0.5,1.6c-0.2,0.2-0.7,0.5-1.5,0.5H124c-1.1,0-1.8-0.3-2.3-0.8c-0.5-0.5-0.8-1.2-0.8-2.3V5.8c0-1.1,0.3-1.8,0.8-2.3
	c0.5-0.5,1.2-0.8,2.3-0.8h17.5c0.8,0,1.3,0.2,1.5,0.5l0.7-0.7l-0.7,0.7c0.3,0.3,0.5,0.7,0.5,1.5c0,0.8-0.2,1.3-0.5,1.6
	c-0.2,0.2-0.7,0.5-1.5,0.5h-15.1V17h14c0.9,0,1.3,0.2,1.6,0.5l0.7-0.7l-0.7,0.7c0.3,0.2,0.5,0.7,0.5,1.5c0,0.8-0.2,1.3-0.5,1.6
	c-0.2,0.2-0.7,0.5-1.6,0.5h-14V32h15.1c0.8,0,1.3,0.2,1.5,0.5l0.7-0.7l-0.7,0.7C143.3,32.7,143.5,33.2,143.5,34z"/>
<path class="st1" d="M112.7,1.6L112.7,1.6C112.7,1.6,112.7,1.6,112.7,1.6C112.7,1.6,112.7,1.6,112.7,1.6L112.7,1.6
	c-0.9-0.9-2-1.3-3.4-1.3c-1.4,0-2.6,0.4-3.4,1.3l0.7,0.7l-0.7-0.7c-0.8,0.9-1.2,2.1-1.2,3.4v16.3L90.3,2.9l-0.8,0.6l0.8-0.6
	c-0.6-0.8-1.3-1.4-1.9-1.9l0,0c0,0,0,0,0,0c0,0,0,0,0,0l0,0c-0.7-0.5-1.6-0.7-2.6-0.7c-1.3,0-2.4,0.4-3.2,1.3l0.7,0.7l-0.7-0.7
	c-0.8,0.9-1.2,2.2-1.2,3.6v28.5c0,1.4,0.3,2.6,1.2,3.5l0.7-0.7l-0.7,0.7c0.9,0.9,2.1,1.2,3.4,1.2c1.4,0,2.6-0.4,3.4-1.3l-0.7-0.7
	l0.7,0.7c0.8-0.9,1.2-2.1,1.2-3.5V17.4L105,35.8l0.8-0.6l-0.8,0.7c0.7,0.8,1.3,1.5,2,2l0.6-0.8l-0.6,0.9c0.8,0.5,1.7,0.7,2.8,0.7
	c1.2,0,2.3-0.4,3-1.3l-0.7-0.7l0.8,0.6c0.8-0.9,1.1-2,1.1-3.3V5C113.9,3.7,113.5,2.5,112.7,1.6z M111.9,5v28.8c0,0.9-0.2,1.5-0.6,2
	c-0.3,0.4-0.8,0.6-1.5,0.6c-0.8,0-1.3-0.2-1.7-0.4c-0.4-0.3-0.9-0.8-1.5-1.5l0,0L92.4,16.5c-0.2-0.2-0.5-0.6-0.6-0.7
	c-0.5-0.6-1-1.3-1.6-1.9c-0.5-0.6-1-1.3-1.5-1.9c0,0,0,0-0.1-0.1h0c0,0.9,0,2.1,0,2.2c0,0.2,0,1.4,0,2.4v17.3c0,1-0.3,1.7-0.6,2.1
	c-0.3,0.4-0.9,0.6-2,0.6c-1,0-1.6-0.3-2-0.6c-0.4-0.4-0.6-1.1-0.6-2.1V5.2c0-1.1,0.3-1.8,0.6-2.2c0.4-0.4,1-0.7,1.8-0.7
	c0.8,0,1.2,0.2,1.4,0.3l0.6-0.8l-0.6,0.8c0.4,0.2,0.9,0.7,1.5,1.5l0,0l14.2,18c0.2,0.2,0.5,0.6,0.5,0.7c0.5,0.6,1,1.3,1.6,1.9
	c0.5,0.6,1,1.3,1.5,1.9c0,0,0,0,0.1,0.2h0c0-0.2,0-0.4,0-0.4c0-0.8,0-1.6,0-2.5c0-0.1,0-0.8,0-1.5v-2c0,0,0,0,0,0c0,0,0,0,0,0V5
	c0-1,0.3-1.6,0.6-2c0.4-0.4,1-0.7,2-0.7c1,0,1.5,0.3,1.9,0.7l0.7-0.7L111.2,3C111.6,3.4,111.9,4,111.9,5z"/>
<polygon class="st1" points="4.9,36 5.6,35.2 5.6,35.2 "/>
<polygon class="st1" points="4.9,2.8 5.6,3.5 5.6,3.5 "/>
<polygon class="st1" points="31.6,6.3 30.9,7.1 30.9,7.1 "/>
<polygon class="st1" points="35.2,26.9 34.3,26.5 34.3,26.5 "/>
<polygon class="st1" points="31.6,32.4 32.3,33.1 32.3,33.1 "/>
<polygon class="st1" points="25.7,35.8 26,36.8 26,36.8 "/>
<polygon class="st1" points="22.1,29.9 21.8,29 21.8,29 "/>
<polygon class="st1" points="25.6,27.8 24.9,27.1 24.9,27.1 "/>
<polygon class="st1" points="27.7,24.3 28.7,24.7 28.7,24.7 "/>
<polygon class="st1" points="25.6,10.9 24.9,11.6 24.9,11.6 24.9,11.6 "/>
<polygon class="st1" points="49.8,35.3 49.2,36.2 49.3,36.2 49.3,36.2 "/>
<polygon class="st1" points="43.7,28.9 42.8,29.4 42.8,29.4 "/>
<polygon class="st1" points="42.7,11.9 41.8,11.6 41.8,11.6 "/>
<polygon class="st1" points="46.3,6.2 47,6.9 47,6.9 "/>
<polygon class="st1" points="51.8,2.5 51.4,1.6 51.4,1.6 "/>
<polygon class="st1" points="68.1,3.4 67.6,4.3 67.6,4.3 "/>
<polygon class="st1" points="74.2,9.8 73.3,10.3 73.3,10.3 73.3,10.3 "/>
<polygon class="st1" points="75.1,26.8 76,27.1 76,27.1 "/>
<polygon class="st1" points="71.6,32.5 72.3,33.2 72.3,33.2 "/>
<polygon class="st1" points="66.1,36.2 65.7,35.3 65.7,35.3 "/>
<polygon class="st1" points="63.9,29.6 64.5,30.4 64.5,30.4 "/>
<polygon class="st1" points="67.1,25.6 66.2,25.2 66.2,25.2 "/>
<polygon class="st1" points="65.8,10.8 65,11.5 65,11.5 "/>
<polygon class="st1" points="50.7,13.1 51.6,13.5 51.6,13.5 "/>
<polygon class="st1" points="52.1,27.9 51.3,28.5 51.3,28.5 "/>
<polygon class="st1" points="83.2,36.5 82.5,37.2 82.5,37.2 82.5,37.2 "/>
<polygon class="st1" points="83.2,2.3 82.5,1.6 82.5,1.6 82.5,1.6 "/>
<polygon class="st1" points="87.8,1.8 87.2,2.6 87.2,2.7 87.2,2.7 "/>
<polygon class="st1" points="89.5,3.5 90.3,2.9 90.3,2.9 "/>
<polygon class="st1" points="106.6,2.3 105.9,1.6 105.9,1.6 "/>
<polygon class="st1" points="111.9,2.3 111.2,3 111.2,3 111.2,3 "/>
<polygon class="st1" points="112,36.5 112.8,37.2 112.8,37.2 112.8,37.1 "/>
<polygon class="st1" points="107.5,36.9 106.9,37.7 106.9,37.7 107,37.7 "/>
<polygon class="st1" points="105.7,35.2 105,35.8 105,35.8 "/>
<polygon class="st1" points="88.6,36.5 89.4,37.2 89.4,37.2 89.4,37.2 "/>
<polygon class="st1" points="121,36 121.8,35.2 121.8,35.2 "/>
<polygon class="st1" points="121,2.8 121.8,3.5 121.8,3.5 "/>
<polygon class="st1" points="143.7,2.5 143,3.2 143,3.3 143.1,3.3 "/>
<polygon class="st1" points="143.7,7 143,6.3 143,6.3 "/>
<polygon class="st1" points="142.6,16.8 141.9,17.5 141.9,17.6 142,17.6 "/>
<polygon class="st1" points="142.6,21.4 143.4,22.1 143.4,22.1 "/>
<polygon class="st1" points="143.7,31.7 143,32.4 143,32.5 143.1,32.5 "/>
<polygon class="st1" points="143.7,36.2 143,35.5 143,35.5 "/>
</svg>
