<svg width="147" height="41" viewBox="0 0 147 41" fill="none" xmlns="http://www.w3.org/2000/svg">
<path d="M7.88223 37C6.58223 37 5.58223 36.65 4.88223 35.95C4.18223 35.25 3.83223 34.25 3.83223 32.95V5.8C3.83223 4.5 4.18223 3.5 4.88223 2.8C5.58223 2.1 6.58223 1.75 7.88223 1.75H17.6322C23.6656 1.75 28.3156 3.28333 31.5822 6.35C34.8822 9.38333 36.5322 13.7167 36.5322 19.35C36.5322 22.1833 36.0989 24.7 35.2322 26.9C34.3989 29.0667 33.1822 30.9 31.5822 32.4C29.9822 33.9 28.0156 35.05 25.6822 35.85C23.3489 36.6167 20.6656 37 17.6322 37H7.88223ZM11.5822 30.65H17.1822C19.0822 30.65 20.7322 30.4167 22.1322 29.95C23.5322 29.4833 24.6989 28.7833 25.6322 27.85C26.5656 26.9167 27.2656 25.75 27.7322 24.35C28.1989 22.9167 28.4322 21.25 28.4322 19.35C28.4322 15.55 27.4822 12.7333 25.5822 10.9C23.7156 9.03333 20.9156 8.1 17.1822 8.1H11.5822V30.65ZM58.9029 37.55C55.4363 37.55 52.3863 36.8 49.7529 35.3C47.1529 33.7667 45.1196 31.6333 43.6529 28.9C42.2196 26.1667 41.5029 22.9833 41.5029 19.35C41.5029 16.5833 41.9029 14.1 42.7029 11.9C43.5363 9.66667 44.7196 7.76667 46.2529 6.2C47.7863 4.6 49.6196 3.36666 51.7529 2.5C53.9196 1.63333 56.3029 1.2 58.9029 1.2C62.4363 1.2 65.5029 1.95 68.1029 3.45C70.7029 4.95 72.7196 7.06666 74.1529 9.8C75.6196 12.5 76.3529 15.6667 76.3529 19.3C76.3529 22.0667 75.9363 24.5667 75.1029 26.8C74.2696 29.0333 73.0863 30.95 71.5529 32.55C70.0196 34.15 68.1863 35.3833 66.0529 36.25C63.9196 37.1167 61.5363 37.55 58.9029 37.55ZM58.9029 30.95C60.8696 30.95 62.5363 30.5 63.9029 29.6C65.3029 28.6667 66.3696 27.3333 67.1029 25.6C67.8696 23.8333 68.2529 21.75 68.2529 19.35C68.2529 15.6833 67.4363 12.85 65.8029 10.85C64.1696 8.81666 61.8696 7.8 58.9029 7.8C56.9696 7.8 55.3029 8.25 53.9029 9.15C52.5029 10.05 51.4363 11.3667 50.7029 13.1C49.9696 14.8333 49.6029 16.9167 49.6029 19.35C49.6029 22.9833 50.4196 25.8333 52.0529 27.9C53.6863 29.9333 55.9696 30.95 58.9029 30.95ZM85.9479 37.45C84.7812 37.45 83.8812 37.1333 83.2479 36.5C82.6479 35.8333 82.3479 34.9 82.3479 33.7V5.2C82.3479 3.93333 82.6479 2.96667 83.2479 2.3C83.8812 1.63333 84.7145 1.3 85.7479 1.3C86.6479 1.3 87.3312 1.48333 87.7979 1.85C88.2979 2.18333 88.8645 2.75 89.4979 3.55L107.048 25.9H105.698V5C105.698 3.83333 105.998 2.93333 106.598 2.3C107.231 1.63333 108.131 1.3 109.298 1.3C110.465 1.3 111.348 1.63333 111.948 2.3C112.581 2.93333 112.898 3.83333 112.898 5V33.85C112.898 34.95 112.615 35.8333 112.048 36.5C111.481 37.1333 110.715 37.45 109.748 37.45C108.815 37.45 108.065 37.2667 107.498 36.9C106.965 36.5333 106.381 35.95 105.748 35.15L88.2479 12.8H89.5479V33.7C89.5479 34.9 89.2479 35.8333 88.6479 36.5C88.0479 37.1333 87.1479 37.45 85.9479 37.45ZM124.044 37C122.744 37 121.744 36.65 121.044 35.95C120.344 35.25 119.994 34.25 119.994 32.95V5.8C119.994 4.5 120.344 3.5 121.044 2.8C121.744 2.1 122.744 1.75 124.044 1.75H141.494C142.494 1.75 143.244 2.01667 143.744 2.55C144.278 3.05 144.544 3.78333 144.544 4.75C144.544 5.75 144.278 6.51667 143.744 7.05C143.244 7.55 142.494 7.8 141.494 7.8H127.394V16.05H140.344C141.378 16.05 142.144 16.3167 142.644 16.85C143.178 17.35 143.444 18.1 143.444 19.1C143.444 20.1 143.178 20.8667 142.644 21.4C142.144 21.9 141.378 22.15 140.344 22.15H127.394V30.95H141.494C142.494 30.95 143.244 31.2167 143.744 31.75C144.278 32.25 144.544 32.9833 144.544 33.95C144.544 34.95 144.278 35.7167 143.744 36.25C143.244 36.75 142.494 37 141.494 37H124.044Z" fill="#B9DED3"/>
<path d="M4.88223 35.95L5.58933 35.2429L5.58933 35.2429L4.88223 35.95ZM4.88223 2.8L5.58933 3.50711L5.58933 3.50711L4.88223 2.8ZM31.5822 6.35L30.8978 7.07911L30.9055 7.08623L31.5822 6.35ZM35.2322 26.9L34.3018 26.5335L34.2989 26.541L35.2322 26.9ZM31.5822 32.4L32.2662 33.1295L32.2662 33.1295L31.5822 32.4ZM25.6822 35.85L25.9944 36.8001L26.0066 36.7959L25.6822 35.85ZM11.5822 30.65H10.5822V31.65H11.5822V30.65ZM22.1322 29.95L21.816 29.0013L21.816 29.0013L22.1322 29.95ZM25.6322 27.85L24.9251 27.1429L24.9251 27.1429L25.6322 27.85ZM27.7322 24.35L28.6809 24.6662L28.6831 24.6596L27.7322 24.35ZM25.5822 10.9L24.8751 11.6071L24.8814 11.6134L24.8879 11.6196L25.5822 10.9ZM11.5822 8.1V7.1H10.5822V8.1H11.5822ZM7.88223 36C6.76117 36 6.04852 35.7021 5.58933 35.2429L4.17512 36.6571C5.11593 37.5979 6.40329 38 7.88223 38V36ZM5.58933 35.2429C5.13015 34.7837 4.83223 34.0711 4.83223 32.95H2.83223C2.83223 34.4289 3.23431 35.7163 4.17512 36.6571L5.58933 35.2429ZM4.83223 32.95V5.8H2.83223V32.95H4.83223ZM4.83223 5.8C4.83223 4.67894 5.13015 3.96629 5.58933 3.50711L4.17512 2.09289C3.23431 3.0337 2.83223 4.32106 2.83223 5.8H4.83223ZM5.58933 3.50711C6.04852 3.04792 6.76117 2.75 7.88223 2.75V0.749998C6.40329 0.749998 5.11593 1.15208 4.17512 2.09289L5.58933 3.50711ZM7.88223 2.75H17.6322V0.749998H7.88223V2.75ZM17.6322 2.75C23.5011 2.75 27.873 4.23951 30.8978 7.07907L32.2667 5.62093C28.7581 2.32716 23.83 0.749998 17.6322 0.749998V2.75ZM30.9055 7.08623C33.949 9.88381 35.5322 13.9197 35.5322 19.35H37.5322C37.5322 13.5136 35.8154 8.88285 32.259 5.61377L30.9055 7.08623ZM35.5322 19.35C35.5322 22.0822 35.1144 24.4708 34.3018 26.5335L36.1626 27.2665C37.0834 24.9292 37.5322 22.2845 37.5322 19.35H35.5322ZM34.2989 26.541C33.5164 28.5754 32.3819 30.2796 30.8983 31.6705L32.2662 33.1295C33.9826 31.5204 35.2813 29.558 36.1656 27.259L34.2989 26.541ZM30.8983 31.6705C29.4137 33.0623 27.5741 34.1442 25.3579 34.9041L26.0066 36.7959C28.457 35.9558 30.5508 34.7377 32.2662 33.1295L30.8983 31.6705ZM25.3701 34.9C23.1579 35.6268 20.5834 36 17.6322 36V38C20.7477 38 23.5398 37.6065 25.9944 36.8L25.3701 34.9ZM17.6322 36H7.88223V38H17.6322V36ZM11.5822 31.65H17.1822V29.65H11.5822V31.65ZM17.1822 31.65C19.1604 31.65 20.922 31.4075 22.4485 30.8987L21.816 29.0013C20.5425 29.4258 19.004 29.65 17.1822 29.65V31.65ZM22.4485 30.8987C23.9782 30.3888 25.2838 29.6126 26.3393 28.5571L24.9251 27.1429C24.114 27.9541 23.0863 28.5779 21.816 29.0013L22.4485 30.8987ZM26.3393 28.5571C27.3948 27.5016 28.171 26.1959 28.6809 24.6662L26.7835 24.0338C26.3601 25.3041 25.7363 26.3317 24.9251 27.1429L26.3393 28.5571ZM28.6831 24.6596C29.1895 23.1042 29.4322 21.329 29.4322 19.35H27.4322C27.4322 21.171 27.2083 22.7292 26.7814 24.0404L28.6831 24.6596ZM29.4322 19.35C29.4322 15.399 28.4443 12.272 26.2766 10.1804L24.8879 11.6196C26.5202 13.1947 27.4322 15.701 27.4322 19.35H29.4322ZM26.2893 10.1929C24.169 8.07255 21.0697 7.1 17.1822 7.1V9.1C20.7614 9.1 23.2621 9.99412 24.8751 11.6071L26.2893 10.1929ZM17.1822 7.1H11.5822V9.1H17.1822V7.1ZM10.5822 8.1V30.65H12.5822V8.1H10.5822ZM49.7529 35.3L49.2449 36.1614L49.2514 36.1652L49.258 36.1689L49.7529 35.3ZM43.6529 28.9L42.7673 29.3644L42.7718 29.3728L43.6529 28.9ZM42.7029 11.9L41.766 11.5504L41.7631 11.5583L42.7029 11.9ZM46.2529 6.2L46.9676 6.8995L46.9749 6.8919L46.2529 6.2ZM51.7529 2.5L51.3815 1.57151L51.3766 1.57353L51.7529 2.5ZM68.1029 3.45L67.6032 4.31619L67.6032 4.31619L68.1029 3.45ZM74.1529 9.8L73.2673 10.2644L73.2707 10.2709L73.2742 10.2773L74.1529 9.8ZM75.1029 26.8L76.0398 27.1496L76.0398 27.1496L75.1029 26.8ZM71.5529 32.55L72.2749 33.2419L72.2749 33.2419L71.5529 32.55ZM66.0529 36.25L65.6766 35.3235L65.6766 35.3235L66.0529 36.25ZM63.9029 29.6L64.4529 30.4352L64.4576 30.4321L63.9029 29.6ZM67.1029 25.6L66.1855 25.2019L66.182 25.2104L67.1029 25.6ZM65.8029 10.85L65.0233 11.4763L65.0284 11.4825L65.8029 10.85ZM50.7029 13.1L51.6239 13.4896L51.6239 13.4896L50.7029 13.1ZM52.0529 27.9L51.2683 28.5201L51.2733 28.5263L52.0529 27.9ZM58.9029 36.55C55.5845 36.55 52.7098 35.8334 50.2479 34.4311L49.258 36.1689C52.0627 37.7666 55.288 38.55 58.9029 38.55V36.55ZM50.2609 34.4386C47.823 33.0009 45.9168 31.004 44.5341 28.4272L42.7718 29.3728C44.3224 32.2627 46.4828 34.5324 49.2449 36.1614L50.2609 34.4386ZM44.5385 28.4356C43.1926 25.8689 42.5029 22.8502 42.5029 19.35H40.5029C40.5029 23.1165 41.2466 26.4644 42.7673 29.3644L44.5385 28.4356ZM42.5029 19.35C42.5029 16.6792 42.8891 14.3143 43.6427 12.2417L41.7631 11.5583C40.9168 13.8857 40.5029 16.4875 40.5029 19.35H42.5029ZM43.6398 12.2496C44.4286 10.1356 45.5402 8.35785 46.9676 6.89946L45.5383 5.50053C43.899 7.17548 42.6439 9.19777 41.766 11.5504L43.6398 12.2496ZM46.9749 6.8919C48.407 5.39753 50.1212 4.24226 52.1293 3.42646L51.3766 1.57353C49.118 2.49107 47.1655 3.80246 45.5309 5.50809L46.9749 6.8919ZM52.1243 3.42847C54.1601 2.61416 56.4156 2.2 58.9029 2.2V0.199999C56.1902 0.199999 53.6791 0.652504 51.3815 1.57152L52.1243 3.42847ZM58.9029 2.2C62.2921 2.2 65.1801 2.91826 67.6032 4.31619L68.6027 2.58381C65.8257 0.981736 62.5804 0.199999 58.9029 0.199999V2.2ZM67.6032 4.31619C70.0343 5.71874 71.9193 7.69385 73.2673 10.2644L75.0386 9.33559C73.5199 6.43947 71.3716 4.18126 68.6027 2.58381L67.6032 4.31619ZM73.2742 10.2773C74.6479 12.8062 75.3529 15.803 75.3529 19.3H77.3529C77.3529 15.5304 76.5913 12.1938 75.0317 9.32267L73.2742 10.2773ZM75.3529 19.3C75.3529 21.9662 74.9515 24.3453 74.166 26.4504L76.0398 27.1496C76.921 24.788 77.3529 22.1672 77.3529 19.3H75.3529ZM74.166 26.4504C73.3766 28.566 72.2631 30.3636 70.8309 31.8581L72.2749 33.2419C73.9094 31.5364 75.1626 29.5007 76.0398 27.1496L74.166 26.4504ZM70.8309 31.8581C69.3988 33.3525 67.6847 34.5077 65.6766 35.3235L66.4293 37.1765C68.6879 36.2589 70.6404 34.9475 72.2749 33.2419L70.8309 31.8581ZM65.6766 35.3235C63.6787 36.1352 61.4256 36.55 58.9029 36.55V38.55C61.6469 38.55 64.1605 38.0982 66.4293 37.1765L65.6766 35.3235ZM58.9029 31.95C61.0251 31.95 62.8925 31.4628 64.4529 30.4352L63.3529 28.7648C62.18 29.5372 60.7141 29.95 58.9029 29.95V31.95ZM64.4576 30.4321C66.0392 29.3776 67.2237 27.881 68.0239 25.9896L66.182 25.2104C65.5155 26.7857 64.5666 27.9557 63.3482 28.7679L64.4576 30.4321ZM68.0203 25.9981C68.8531 24.0789 69.2529 21.8543 69.2529 19.35H67.2529C67.2529 21.6457 66.8861 23.5877 66.1856 25.2019L68.0203 25.9981ZM69.2529 19.35C69.2529 15.5478 68.4071 12.4578 66.5775 10.2175L65.0284 11.4825C66.4654 13.2422 67.2529 15.8189 67.2529 19.35H69.2529ZM66.5826 10.2237C64.7318 7.91974 62.1256 6.8 58.9029 6.8V8.8C61.6135 8.8 63.6074 9.71359 65.0233 11.4763L66.5826 10.2237ZM58.9029 6.8C56.8095 6.8 54.9482 7.28925 53.3622 8.30882L54.4437 9.99118C55.6577 9.21075 57.1297 8.8 58.9029 8.8V6.8ZM53.3622 8.30882C51.7713 9.33152 50.5831 10.8168 49.782 12.7104L51.6239 13.4896C52.2894 11.9165 53.2345 10.7685 54.4437 9.99118L53.3622 8.30882ZM49.782 12.7104C48.9836 14.5974 48.6029 16.8203 48.6029 19.35H50.6029C50.6029 17.013 50.9556 15.0693 51.6239 13.4896L49.782 12.7104ZM48.6029 19.35C48.6029 23.1241 49.451 26.2205 51.2684 28.5201L52.8375 27.2799C51.3882 25.4462 50.6029 22.8426 50.6029 19.35H48.6029ZM51.2733 28.5263C53.1217 30.8273 55.7093 31.95 58.9029 31.95V29.95C56.2299 29.95 54.2508 29.0393 52.8326 27.2737L51.2733 28.5263ZM83.2479 36.5L82.5046 37.169L82.5221 37.1885L82.5407 37.2071L83.2479 36.5ZM83.2479 2.3L82.5229 1.61125L82.5136 1.62102L82.5046 1.63103L83.2479 2.3ZM87.7979 1.85L87.18 2.63632L87.2107 2.66041L87.2432 2.68205L87.7979 1.85ZM89.4979 3.55L90.2844 2.93241L90.2819 2.9293L89.4979 3.55ZM107.048 25.9V26.9H109.105L107.834 25.2824L107.048 25.9ZM105.698 25.9H104.698V26.9H105.698V25.9ZM106.598 2.3L105.873 1.61125L105.872 1.61225L106.598 2.3ZM111.948 2.3L111.205 2.96896L111.222 2.98851L111.241 3.00711L111.948 2.3ZM112.048 36.5L112.793 37.1668L112.802 37.1573L112.81 37.1476L112.048 36.5ZM107.498 36.9L106.931 37.724L106.943 37.732L106.955 37.7396L107.498 36.9ZM105.748 35.15L104.96 35.7665L104.964 35.7707L105.748 35.15ZM88.2479 12.8V11.8H86.1948L87.4605 13.4165L88.2479 12.8ZM89.5479 12.8H90.5479V11.8H89.5479V12.8ZM88.6479 36.5L89.3738 37.1877L89.3826 37.1785L89.3911 37.169L88.6479 36.5ZM85.9479 36.45C84.9628 36.45 84.3489 36.1869 83.955 35.7929L82.5407 37.2071C83.4134 38.0798 84.5996 38.45 85.9479 38.45V36.45ZM83.9911 35.831C83.6055 35.4025 83.3479 34.7378 83.3479 33.7H81.3479C81.3479 35.0622 81.6902 36.2641 82.5046 37.169L83.9911 35.831ZM83.3479 33.7V5.2H81.3479V33.7H83.3479ZM83.3479 5.2C83.3479 4.07894 83.6136 3.38847 83.9911 2.96896L82.5046 1.63103C81.6821 2.54486 81.3479 3.78773 81.3479 5.2H83.3479ZM83.9729 2.98875C84.3931 2.54635 84.9513 2.3 85.7479 2.3V0.299998C84.4778 0.299998 83.3692 0.720311 82.5229 1.61125L83.9729 2.98875ZM85.7479 2.3C86.5339 2.3 86.96 2.46347 87.18 2.63632L88.4157 1.06368C87.7023 0.50319 86.7618 0.299998 85.7479 0.299998V2.3ZM87.2432 2.68205C87.6162 2.93076 88.1068 3.40394 88.7138 4.1707L90.2819 2.9293C89.6223 2.09606 88.9795 1.43591 88.3526 1.01795L87.2432 2.68205ZM88.7114 4.16759L106.261 26.5176L107.834 25.2824L90.2844 2.93241L88.7114 4.16759ZM107.048 24.9H105.698V26.9H107.048V24.9ZM106.698 25.9V5H104.698V25.9H106.698ZM106.698 5C106.698 4.00086 106.952 3.37983 107.324 2.98774L105.872 1.61225C105.043 2.48684 104.698 3.6658 104.698 5H106.698ZM107.323 2.98875C107.72 2.57108 108.327 2.3 109.298 2.3V0.299998C107.935 0.299998 106.743 0.695585 105.873 1.61125L107.323 2.98875ZM109.298 2.3C110.271 2.3 110.847 2.57195 111.205 2.96896L112.691 1.63104C111.848 0.694716 110.658 0.299998 109.298 0.299998V2.3ZM111.241 3.00711C111.635 3.40108 111.898 4.01496 111.898 5H113.898C113.898 3.6517 113.528 2.46558 112.655 1.59289L111.241 3.00711ZM111.898 5V33.85H113.898V5H111.898ZM111.898 33.85C111.898 34.7755 111.663 35.4092 111.286 35.8524L112.81 37.1476C113.566 36.2575 113.898 35.1245 113.898 33.85H111.898ZM111.303 35.8332C110.953 36.2242 110.473 36.45 109.748 36.45V38.45C110.956 38.45 112.01 38.0424 112.793 37.1668L111.303 35.8332ZM109.748 36.45C108.936 36.45 108.395 36.2895 108.041 36.0604L106.955 37.7396C107.734 38.2439 108.693 38.45 109.748 38.45V36.45ZM108.064 36.076C107.647 35.7887 107.135 35.2906 106.532 34.5293L104.964 35.7707C105.628 36.6094 106.283 37.278 106.931 37.724L108.064 36.076ZM106.535 34.5335L89.0352 12.1835L87.4605 13.4165L104.96 35.7665L106.535 34.5335ZM88.2479 13.8H89.5479V11.8H88.2479V13.8ZM88.5479 12.8V33.7H90.5479V12.8H88.5479ZM88.5479 33.7C88.5479 34.7378 88.2902 35.4025 87.9046 35.831L89.3911 37.169C90.2055 36.2641 90.5479 35.0622 90.5479 33.7H88.5479ZM87.9219 35.8123C87.5731 36.1804 86.9795 36.45 85.9479 36.45V38.45C87.3162 38.45 88.5226 38.0863 89.3738 37.1877L87.9219 35.8123ZM121.044 35.95L121.751 35.2429L121.751 35.2429L121.044 35.95ZM121.044 2.8L121.751 3.50711L121.751 3.50711L121.044 2.8ZM143.744 2.55L143.015 3.23394L143.037 3.25747L143.06 3.27954L143.744 2.55ZM143.744 7.05L143.037 6.34289L143.037 6.34289L143.744 7.05ZM127.394 7.8V6.8H126.394V7.8H127.394ZM127.394 16.05H126.394V17.05H127.394V16.05ZM142.644 16.85L141.915 17.5339L141.937 17.5575L141.96 17.5795L142.644 16.85ZM142.644 21.4L143.351 22.1071L143.351 22.1071L142.644 21.4ZM127.394 22.15V21.15H126.394V22.15H127.394ZM127.394 30.95H126.394V31.95H127.394V30.95ZM143.744 31.75L143.015 32.4339L143.037 32.4575L143.06 32.4795L143.744 31.75ZM143.744 36.25L143.037 35.5429L143.037 35.5429L143.744 36.25ZM124.044 36C122.923 36 122.211 35.7021 121.751 35.2429L120.337 36.6571C121.278 37.5979 122.565 38 124.044 38V36ZM121.751 35.2429C121.292 34.7837 120.994 34.0711 120.994 32.95H118.994C118.994 34.4289 119.396 35.7163 120.337 36.6571L121.751 35.2429ZM120.994 32.95V5.8H118.994V32.95H120.994ZM120.994 5.8C120.994 4.67894 121.292 3.96629 121.751 3.50711L120.337 2.09289C119.396 3.0337 118.994 4.32106 118.994 5.8H120.994ZM121.751 3.50711C122.211 3.04792 122.923 2.75 124.044 2.75V0.749998C122.565 0.749998 121.278 1.15208 120.337 2.09289L121.751 3.50711ZM124.044 2.75H141.494V0.749998H124.044V2.75ZM141.494 2.75C142.323 2.75 142.765 2.96792 143.015 3.23394L144.474 1.86606C143.723 1.06541 142.666 0.749998 141.494 0.749998V2.75ZM143.06 3.27954C143.333 3.53498 143.544 3.96649 143.544 4.75H145.544C145.544 3.60018 145.222 2.56502 144.428 1.82046L143.06 3.27954ZM143.544 4.75C143.544 5.57424 143.328 6.05207 143.037 6.34289L144.451 7.75711C145.227 6.98126 145.544 5.92576 145.544 4.75H143.544ZM143.037 6.34289C142.791 6.58921 142.34 6.8 141.494 6.8V8.8C142.648 8.8 143.698 8.51078 144.451 7.7571L143.037 6.34289ZM141.494 6.8H127.394V8.8H141.494V6.8ZM126.394 7.8V16.05H128.394V7.8H126.394ZM127.394 17.05H140.344V15.05H127.394V17.05ZM140.344 17.05C141.218 17.05 141.671 17.274 141.915 17.5339L143.374 16.1661C142.618 15.3593 141.537 15.05 140.344 15.05V17.05ZM141.96 17.5795C142.226 17.8289 142.444 18.2713 142.444 19.1H144.444C144.444 17.9287 144.129 16.8711 143.328 16.1205L141.96 17.5795ZM142.444 19.1C142.444 19.9242 142.228 20.4021 141.937 20.6929L143.351 22.1071C144.127 21.3313 144.444 20.2758 144.444 19.1H142.444ZM141.937 20.6929C141.696 20.9338 141.235 21.15 140.344 21.15V23.15C141.521 23.15 142.592 22.8662 143.351 22.1071L141.937 20.6929ZM140.344 21.15H127.394V23.15H140.344V21.15ZM126.394 22.15V30.95H128.394V22.15H126.394ZM127.394 31.95H141.494V29.95H127.394V31.95ZM141.494 31.95C142.323 31.95 142.765 32.1679 143.015 32.4339L144.474 31.0661C143.723 30.2654 142.666 29.95 141.494 29.95V31.95ZM143.06 32.4795C143.333 32.735 143.544 33.1665 143.544 33.95H145.544C145.544 32.8002 145.222 31.765 144.428 31.0205L143.06 32.4795ZM143.544 33.95C143.544 34.7742 143.328 35.2521 143.037 35.5429L144.451 36.9571C145.227 36.1813 145.544 35.1258 145.544 33.95H143.544ZM143.037 35.5429C142.791 35.7892 142.34 36 141.494 36V38C142.648 38 143.698 37.7108 144.451 36.9571L143.037 35.5429ZM141.494 36H124.044V38H141.494V36Z" fill="#8C8C8C"/>
</svg>
