<svg width="13" height="13" viewBox="0 0 13 13" fill="none" xmlns="http://www.w3.org/2000/svg">
<path fill-rule="evenodd" clip-rule="evenodd" d="M6.00006 5.99963V0.499634C6.00006 0.367025 6.05274 0.239848 6.14651 0.14608C6.24027 0.0523122 6.36745 -0.000366211 6.50006 -0.000366211C6.63267 -0.000366211 6.75984 0.0523122 6.85361 0.14608C6.94738 0.239848 7.00006 0.367025 7.00006 0.499634V5.99963H12.5001C12.6327 5.99963 12.7598 6.05231 12.8536 6.14608C12.9474 6.23985 13.0001 6.36702 13.0001 6.49963C13.0001 6.63224 12.9474 6.75942 12.8536 6.85318C12.7598 6.94695 12.6327 6.99963 12.5001 6.99963H7.00006V12.4996C7.00006 12.6322 6.94738 12.7594 6.85361 12.8532C6.75984 12.947 6.63267 12.9996 6.50006 12.9996C6.36745 12.9996 6.24027 12.947 6.14651 12.8532C6.05274 12.7594 6.00006 12.6322 6.00006 12.4996V6.99963H0.500061C0.367453 6.99963 0.240276 6.94695 0.146508 6.85318C0.0527394 6.75942 6.10352e-05 6.63224 6.10352e-05 6.49963C6.10352e-05 6.36702 0.0527394 6.23985 0.146508 6.14608C0.240276 6.05231 0.367453 5.99963 0.500061 5.99963H6.00006Z" fill="#468270"/>
</svg>
